<?xml version="1.0" standalone="no"?><!DOCTYPE svg PUBLIC "-//W3C//DTD SVG 1.1//EN" "http://www.w3.org/Graphics/SVG/1.1/DTD/svg11.dtd"><svg class="icon" height="512" viewBox="0 0 1024 1024" version="1.1" xmlns="http://www.w3.org/2000/svg"><path d="M653.568 268.2368c-18.1504 0-33.7152-4.0448-46.6432-12.2112a103.8848 103.8848 0 0 1-31.744-30.1824 135.424 135.424 0 0 1-18.0224-39.4496 151.424 151.424 0 0 1-5.8112-39.8848V24.6528H178.2272c-14.9248 0-29.2608 4.0448-42.88 12.16A156.416 156.416 0 0 0 98.8416 67.072a142.2848 142.2848 0 0 0-25.216 40.3456c-6.1952 14.9504-9.2672 29.184-9.2672 42.88v663.3472c0 16.3072 4.2496 32.0512 12.6464 47.36a165.4272 165.4272 0 0 0 31.6928 40.3712 174.9248 174.9248 0 0 0 40.8576 28.2112c14.6688 7.0656 28.0832 10.7776 40.448 10.7776h268.8256l188.9536-196.8128c-9.7024 7.7568-21.7088 11.5968-35.9424 11.5968H246.4512c-16.896 0-31.1296-5.7344-42.88-17.4592a58.1632 58.1632 0 0 1-17.536-42.8032c0-16.896 5.8112-31.36 17.536-43.3664a57.5232 57.5232 0 0 1 42.88-18.0224h365.3632c16.8192 0 31.2064 5.9904 43.2128 18.0224s18.0224 26.4704 18.0224 43.3664c0 12.2112-3.5072 23.6032-10.624 34.048l133.376-138.3936v-322.304H653.568z m1.5616 225.9712a60.032 60.032 0 0 1-43.2896 17.4592H246.4512c-16.896 0-31.2064-5.8112-42.88-17.4592a58.4192 58.4192 0 0 1-17.536-42.88c0-16.896 5.8624-31.2832 17.536-43.3664a57.6 57.6 0 0 1 42.88-17.9968h365.3632c16.8192 0 31.2832 5.9904 43.2896 17.9968a59.136 59.136 0 0 1 17.9968 43.3664 57.4464 57.4464 0 0 1-17.9712 42.88z" fill="#FD8202" /><path d="M955.6736 664.6528a90.0608 90.0608 0 0 0-17.2032-25.856c-7.5264-8.1408-14.4384-13.7472-20.9408-17.024-5.8624-3.2768-13.2608-5.3248-22.4-6.272-9.088-1.0496-17.6128 1.9968-25.2672 9.1136-3.2768 2.7136-7.3216 6.2976-12.2368 10.7776-4.8128 4.4544-9.1392 8.448-13.1328 11.7248l82.816 81.8176c2.0224-1.408 4.3264-3.2768 6.8608-5.8624 1.9968-2.048 4.3008-4.352 6.8352-7.3472 2.6624-2.8416 5.5808-5.9904 8.8064-9.1392 7.1936-7.1936 10.3936-14.6944 9.7792-22.4768a79.7696 79.7696 0 0 0-3.9168-19.456zM622.5152 181.504c3.2 6.5024 7.296 12.1344 12.16 17.0496a24.4736 24.4736 0 0 0 18.0736 7.3472V205.824h143.0784v-15.5904c0-3.9168-0.5376-8.448-1.9456-13.6192-1.2544-5.248-4.608-11.5968-10.1888-18.9952a271.488 271.488 0 0 0-23.9104-27.2896 843.264 843.264 0 0 0-41.8048-39.4496 1386.9568 1386.9568 0 0 0-40.4992-34.5088 332.7744 332.7744 0 0 0-27.2384-20.4544c-7.4752-4.8896-13.824-7.9616-18.9952-9.2928a66.944 66.944 0 0 0-16.5888-1.9456h-1.9456v119.8336c0 4.5312 0.8192 10.1888 2.5088 17.0496 1.5616 6.8096 3.9936 13.44 7.296 19.9424zM718.0288 772.6848c-11.7248 11.7248-23.4496 23.6032-35.0976 35.6352a2406.912 2406.912 0 0 1-32.2048 32.5888l-24.3712 24.448-12.5696 12.6976c-6.5536 6.4-11.7248 13.9008-15.6928 22.272a173.6192 173.6192 0 0 0-5.376 14.72l-7.2704 22.912c-2.5856 8.0384-4.864 16-6.8608 23.9104a228.6848 228.6848 0 0 0-3.8912 17.4592c-1.2544 7.7568-0.6144 13.3376 1.9456 16.6144 2.6624 3.1232 7.9104 4.1216 15.6416 2.8672 3.8912-0.5888 9.7792-1.9712 17.536-3.9936 7.8336-1.792 15.9232-4.096 24.3712-6.8608 8.3712-2.4576 16.6912-5.2992 24.9344-8.2432 8.0896-2.8928 14.1056-5.2992 18.0224-7.296 3.968-1.9456 7.7568-4.4032 11.6992-7.2704l10.7008-8.32c0.64-0.5888 4.0448-4.1728 10.1888-10.5984 6.1952-6.7072 13.7472-14.3104 22.8608-23.4496l32.1792-32.2048 35.0464-35.0464 94.5664-94.5408-81.8432-81.8432a13977.2928 13977.2928 0 0 0-94.5152 93.5424z" fill="#FEB467" /></svg>